# xmcd
#
# Track frame offsets:
#  150
#  12821
#  42640
#  50809
#  57437
#  73931
#  86477
#  108593
#  116951
#  130925
#  143133
#  149733
#  162668
#  189084
#  200803
#  222888
#
# Disc length: 3172 seconds
#
# Revision: 0
# Processed by: cddbd v1.5.1PL2 Copyright (c) Steve Scherf et al.
# Submitted via: AltoMP3_Maker 3.0
#
DISCID=080c6210
DTITLE=Dave Gould - The Passion of Bobby Bedeque
DYEAR=1900
DGENRE=
TTITLE0=Searching for Rainbows
TTITLE1=I Blame gthe Gun Law
TTITLE2=Stand and Grin
TTITLE3=Legend of the Lobster
TTITLE4=Days of Dine and Dash
TTITLE5=No shirt No Shoes No Service
TTITLE6=Canadian Fish
TTITLE7=Fiddlin' Fred/Dancing Fool
TTITLE8=P.E.I.E.I.Joe
TTITLE9=Curse of the Red Dirt Road
TTITLE10=Stud Double Trailer
TTITLE11=Oxy Mormon
TTITLE12=Unidentified Flying Postman
TTITLE13=On What Planet
TTITLE14=Hit by a Train
TTITLE15=Secret Codes of the Black Duck Game Show
EXTD=
EXTT0=
EXTT1=
EXTT2=
EXTT3=
EXTT4=
EXTT5=
EXTT6=
EXTT7=
EXTT8=
EXTT9=
EXTT10=
EXTT11=
EXTT12=
EXTT13=
EXTT14=
EXTT15=
PLAYORDER=
